<svg xmlns="http://www.w3.org/2000/svg" version="1.1" viewBox="0 0 85 85" width="100%" height="100%">
  <g
     transform="matrix(1.7904415,0,0,1.7904415,-1.5433101,41.388953)">
    <g
       transform="matrix(0.31236634,0,0,0.31236634,1.3717009,-23.034291)">
      <g
         transform="matrix(1.1002842,0,0,1.1002842,-7.6173534,129.62911)"
       >
        <g
           transform="matrix(3.2329807,0,0,3.2329807,12.731137,-104.75087)"
           >
          <g>
            <rect
               style="fill:none"
               id="canvas_background-7"
               height="3.6980901"
               width="3.6980901"
               y="-1"
               x="-1" />
          </g>
          <g>
            <path
               style="fill:none"
               inkscape:connector-curvature="0"
               id="svg_1-8"
               d="M 0,0 H 24 V 24 H 0 Z" />
          </g>
        </g>
      </g>
      <g
         transform="translate(-27.808727,155.58902)"
         id="g934"
         style="fill:#000000">
        <path
           style="fill:none"
           inkscape:connector-curvature="0"
           d="M 0,0 H 24 V 24 H 0 Z"
            />
      </g>
    </g>
  </g>
  <g
     style="fill:#000000"
     transform="matrix(1.9997745,0,0,1.9997757,23.335688,33.952465)">
    <path
       style="fill:none;stroke:{{::opts.color}};stroke-width:0.375;stroke-miterlimit:4;stroke-dasharray:none;stroke-opacity:1"
       d="M 18.572837,9.6573087 H 16.673395 L 16.000173,9.008132 c 2.356272,-2.7409687 3.774844,-6.2994199 3.774844,-10.170437 0,-8.6316478 -6.996684,-15.628332 -15.6283324,-15.628332 -8.6316478,0 -15.6283316,6.9966842 -15.6283316,15.628332 0,8.6316477 6.9966838,15.628333 15.6283316,15.628333 3.8710171,0 7.4294684,-1.418573 10.1704374,-3.774845 l 0.649177,0.673222 v 1.899443 l 12.021794,11.99775 3.582495,-3.582495 z M 1.0441392,4.646272 H 7.8306618 V 8.7825807 H 1.0441392 Z M 7.9850919,3.443982 C 8.2810187,0.6747464 9.9694507,-1.6309941 10.947127,-4.1641409 11.750964,-7.1970459 10.15899,-10.662 7.2767368,-11.935085 c -2.8688396,-1.42583 -6.6910652,-0.348702 -8.3123395,2.4451827 -1.5621128,2.3078218 -1.2639953,5.4435065 0.26277413,7.6878441 C 0.3165593,0.15937506 1.185722,2.3636132 1.0441392,4.646272 c 2.2613133,0 4.5226257,0 6.7839417,0 0.052344,-0.4007569 0.1046584,-0.8015407 0.1570163,-1.20229 z m 2.5495851,-14.76597 h 2e-6 z"
       inkscape:connector-curvature="0" />
    <path
       d="M 0,0 H 24 V 24 H 0 Z"
       inkscape:connector-curvature="0"
       style="fill:none" />
  </g>
</svg>
