<svg xmlns="http://www.w3.org/2000/svg" version="1.1" width="100%" height="100%" viewbox="0 0 150 150">
  <g transform="matrix(6.1284144,0,0,6.1284144,2.55181,2.819046)">
    <path d="m 1.562499,8.270818 v 2 h 2 c 1.2,2.53 2.525,5.309999 3.725,7.839999 l 10.3875,0.0675 3.7675,-6.4275 c 0.08,-0.14 0.12,-0.31 0.12,-0.48 0,-0.55 -0.45,-1 -1,-1 l -14.665,0.0625 -1.0025,-2.062499 z" inkscape:connector-curvature="0" style="fill:none;stroke:#7d7d7d;stroke-width:0.20;stroke-miterlimit:4;stroke-dasharray:none;stroke-opacity:1" />
    <circle cx="9.3750067" cy="20.609018" r="2.468744" style="fill:none;stroke:#7d7d7d;stroke-width:0.20;stroke-miterlimit:4;stroke-dasharray:none;stroke-opacity:1" />
    <circle cx="15.624991" cy="20.660433" r="2.468744" style="fill:none;stroke:#7d7d7d;stroke-width:0.20;stroke-miterlimit:4;stroke-dasharray:none;stroke-opacity:1" />
    <path d="M 13.118571,8.611151 12.767079,7.38093 c 0.103008,-0.090358 0.199691,-0.187041 0.290953,-0.2905 l 1.229317,0.351492 c 0.129663,-0.188848 0.241255,-0.389442 0.3411,-0.597716 L 13.713578,5.9587 c 0.04382,-0.130115 0.08177,-0.26249 0.108881,-0.39893 L 15.05539,5.250747 c 0.009,-0.113852 0.01762,-0.228154 0.01762,-0.344715 0,-0.116561 -0.009,-0.230412 -0.01762,-0.344263 L 13.822459,4.252745 C 13.7949,4.116305 13.75695,3.983931 13.713578,3.853815 L 14.628901,2.96831 C 14.528604,2.760487 14.417013,2.559441 14.287349,2.370593 l -1.229317,0.35104 c -0.09081,-0.103007 -0.187944,-0.19969 -0.290953,-0.2905 L 13.118571,1.201364 C 12.929723,1.072152 12.728677,0.960108 12.520403,0.860263 L 11.634897,1.775587 C 11.505234,1.731763 11.372408,1.694265 11.235967,1.666706 L 10.927396,0.433322 C 10.813094,0.424738 10.699243,0.415703 10.582681,0.415703 c -0.116562,0 -0.230412,0.009036 -0.344263,0.017619 L 9.929394,1.666706 C 9.792954,1.694265 9.660581,1.731763 9.530465,1.775587 L 8.644959,0.860263 C 8.437136,0.961464 8.236542,1.073056 8.047694,1.202719 L 8.399185,2.432488 C 8.296178,2.522846 8.199043,2.61998 8.108685,2.722536 L 6.878916,2.371044 C 6.749253,2.559892 6.63766,2.760938 6.537815,2.969212 L 7.453139,3.854718 C 7.409767,3.984833 7.371817,4.117207 7.344258,4.253648 L 6.110875,4.562671 c -0.00859,0.113852 -0.01762,0.228154 -0.01762,0.344263 0,0.116109 0.00904,0.230412 0.01762,0.344715 l 1.233383,0.309024 c 0.027559,0.13644 0.065509,0.268814 0.108881,0.398929 L 6.537815,6.845108 C 6.63766,7.052931 6.749252,7.253977 6.878916,7.442824 L 8.108685,7.091333 c 0.090358,0.103459 0.187493,0.19969 0.2905,0.2905 L 8.047694,8.612054 C 8.236541,8.741266 8.437587,8.852858 8.64541,8.953155 L 9.530916,8.037831 c 0.130115,0.043824 0.262489,0.081774 0.398929,0.108881 l 0.309024,1.232932 c 0.113851,0.00904 0.228153,0.017619 0.344715,0.017619 0.116562,0 0.230412,-0.00904 0.344715,-0.017619 L 11.23687,8.146712 C 11.373311,8.119153 11.506136,8.081203 11.6358,8.037831 l 0.885506,0.915324 C 12.728677,8.851954 12.929723,8.740362 13.118571,8.61115 Z M 10.583133,6.442114 c -0.848008,0 -1.53563,-0.687623 -1.53563,-1.535631 0,-0.848008 0.687622,-1.535178 1.53563,-1.535178 0.848008,0 1.535178,0.687171 1.535178,1.535178 0,0.848007 -0.68717,1.535631 -1.535178,1.535631 z m 6.999111,3.209959 c 0.0086,-0.247129 -0.02711,-0.498775 -0.103911,-0.747259 L 18.040358,8.103792 C 17.955422,7.945666 17.859643,7.795673 17.750762,7.659232 L 16.792066,7.860278 C 16.598701,7.695828 16.37868,7.567519 16.143298,7.475806 L 15.867255,6.536537 C 15.692864,6.505815 15.516215,6.489099 15.337306,6.488647 L 14.897264,7.36331 C 14.771216,7.387707 14.645166,7.421139 14.521376,7.468577 14.405266,7.512853 14.296837,7.56797 14.192925,7.628059 L 13.286637,7.258044 c -0.134181,0.118368 -0.256616,0.246225 -0.367304,0.384924 l 0.409772,0.88912 c -0.117014,0.223635 -0.197432,0.464439 -0.234478,0.716085 l -0.854332,0.478896 c 0.0086,0.175294 0.03434,0.350588 0.07409,0.526334 6.237943,-0.04553 5.836405,-0.02184 6.021893,0.02304 L 17.582245,9.652071 Z" inkscape:connector-curvature="0" style="fill:none;stroke:#7d7d7d;stroke-width:0.15;stroke-miterlimit:4;stroke-dasharray:none;stroke-opacity:1" />
    <path d="m 14.118641,10.231928 c 0,0 -0.105942,-1.20812 1.062386,-1.212146 1.168328,-0.00402 1.019936,1.212146 1.017499,1.209709 0.0024,0.0024 -2.079885,0.0024 -2.079885,0.0024 z" fill-opacity="null" inkscape:connector-curvature="0" style="fill:none;stroke:#7d7d7d;stroke-width:0.20;stroke-miterlimit:4;stroke-dasharray:none;stroke-opacity:1" />
  </g>
</svg>
