 <svg
   viewbox="0 0 85 85"
   width="100%"
   height="100%">
  <clipPath>
    <use
       height="100%"
       width="100%"
       y="0"
       x="0"
       xlink:href="#a" />
  </clipPath>
  <g
     stroke-miterlimit="4"
     transform="matrix(3.3162208,0,0,3.3162208,3.2391011,0.75774389)"
     style="stroke-width:0.122505;stroke-miterlimit:4">
    <path
       style="fill:none;stroke:{{::opts.color}};stroke-width:0.22616106;stroke-miterlimit:4;stroke-dasharray:none;stroke-opacity:1"
       d="m 9.2259605,13.835308 c 0.026625,0.01886 0.054787,0.03516 0.080769,0.05453 0.8028205,0.583951 1.3825725,1.300405 1.8414345,1.923599 0.105478,0.145727 0.198986,0.285861 0.299113,0.42905 h 5.360603 v 1.507286 l 2.347553,-1.354426 2.347053,-1.354919 -2.347053,-1.355437 -2.347553,-1.355951 v 1.506269 H 9.2259627 Z M 19.151578,23.835472 21.49863,22.480026 19.151578,21.125099 16.804024,19.77068 v 1.506769 c -0.615808,-0.001 -1.636335,-0.001 -1.925634,-0.001 C 14.023598,21.256059 13.462567,20.98855 12.878731,20.509555 12.008525,19.794623 11.26584,18.507972 10.370153,17.268209 9.914606,16.651647 9.407081,16.040165 8.7311443,15.548444 8.0619634,15.054671 7.1876762,14.712245 6.2158153,14.71887 H 2.0033837 v 2.407177 h 4.2124316 c 0.5857432,0.01067 0.9564464,0.201782 1.4620635,0.675683 0.7480383,0.704728 1.4773516,2.052007 2.4832302,3.328469 0.985746,1.264221 2.502593,2.540681 4.702631,2.552911 h 1.940286 v 1.506766 L 19.15158,23.835472 Z M 14.313615,6.6771159 a 2.2966497,2.2966497 0 0 1 -2.29665,2.2966497 2.2966497,2.2966497 0 0 1 -2.2966498,-2.2966497 2.2966497,2.2966497 0 0 1 2.2966498,-2.2966497 2.2966497,2.2966497 0 0 1 2.29665,2.2966497 z m 7.366102,-5.1864164 c -6.538731,-5.5476423 -13.0774623,5.5476434 -19.6161923,0 v 9.9857575 c 6.53873,5.547643 13.0774603,-5.5476429 19.6161923,0 z" />
  </g>
</svg>