<svg xmlns="http://www.w3.org/2000/svg" version="1.1" viewBox="0 0 28 28" width="100%" height="100%">
    <g transform="matrix(1.0302106,0,0,1.0224115,-23.664941,21.014239)">
        <path d="m 29.4,5 h 14.5 c 2.1,0 3.6,-2.4 3.5,-3.6 0,-7.6 0,-13.6 0,-14.6 H 25.8 V 1.4 c 0,2 1.7,3.6 3.6,3.6 z"
              style="fill:none;stroke:#7d7d7d;stroke-width:0.5;stroke-miterlimit:4;stroke-dasharray:none"></path>
        <path d="m 25.855806,-14.820971 c 0,-2.7 1.2,-3.9 2.1,-3.9 h 17.1 c 1.1,0 2.1,1.6 2.1,3.9 0.1,0 -21.3,0 -21.3,0 z"
              style="fill:none;stroke:#7d7d7d;stroke-width:0.5;stroke-linejoin:miter;stroke-miterlimit:4;stroke-dasharray:none"></path>
        <path d="m 25.721711,-0.771873 c -1.651199,0 -2.385065,-0.5832038 -2.385065,-1.0206064 V -10.10313 c 0,-0.534603 0.978487,-1.020607 2.385065,-1.020607 0,-0.04861 0,10.351864 0,10.351864 z"
              style="fill:none;stroke:#7d7d7d;stroke-width:0.5;stroke-miterlimit:4;stroke-dasharray:none"></path>
        <path d="m 47.399146,-0.771873 c 1.651199,0 2.385065,-0.5832038 2.385065,-1.0206064 V -10.10313 c 0,-0.534603 -0.978487,-1.020607 -2.385065,-1.020607 0,-0.04861 0,10.351864 0,10.351864 z"
              style="fill:none;stroke:#7d7d7d;stroke-width:0.5;stroke-miterlimit:4;stroke-dasharray:none"></path>
    </g>
</svg>
