<svg xmlns="http://www.w3.org/2000/svg" version="1.1" viewbox="0 0 85 85" width="100%" height="100%">
  <g
     transform="translate(0,61)">
  </g>
  <g
     transform="matrix(4.3041714,0,0,4.3041714,-0.24427906,-9.5229582)">
    <path
       style="fill:none;stroke:{{::opts.color}};stroke-width:0.17424957;stroke-miterlimit:4;stroke-dasharray:none;stroke-opacity:1"
       d="m 13.997628,12.040332 h 3.096086 m -16.09727299,0 H 4.0925269 m 12.8804121,1.58483 h -2.387462 m 2.409795,0.100434 V 11.96876 M 9.323617,13.625162 H 1.1657161 m -0.074017,0.100419 v -1.756835 m 12.0432469,0.138619 h -2.265205 l -1.8530577,1.853058 v 2.265205 l 5.5937267,5.593727 4.118263,-4.118619 z m -2.767119,2.149077 c -0.2205,-0.2205 -0.2205,-0.577789 0,-0.797933 0.2205,-0.2205 0.577789,-0.2205 0.79829,0 0.220857,0.220857 0.2205,0.577433 0,0.79829 -0.2205,0.2205 -0.577789,0.2205 -0.79829,-3.57e-4 z m 4.156715,-2.214267 c 0.76448,0 1.38301,-0.62548 1.38301,-1.38995 l 0.0069,-6.94978 c 0,-0.76447 -0.62548,-1.38995 -1.38996,-1.38995 H 3.404912 c -0.76448,0 -1.38996,0.62548 -1.38996,1.38995 v 6.94978 c 0,0.76447 0.62548,1.38995 1.38996,1.38995 z M 3.404912,3.702445 h 11.11963 v 6.94978 H 3.404912 Z" />
  </g>
</svg>
