<svg xmlns="http://www.w3.org/2000/svg" version="1.1" viewBox="0 0 24.277 24.277" width="100%" height="100%">
        <g transform="matrix(1.1763322,0,0,1.1763322,-1.9162269,-1.9774862)">
            <path d="m 19.967846,6 h -8 l -2,-2 h -6 c -1.1,0 -2,0.9 -2,2 v 12 c 0,1.1 0.9,2 2,2 h 16 c 1.1,0 2,-0.9 2,-2 V 8 c 0,-1.1 -0.9,-2 -2,-2 z"
                  style="fill:none;stroke:{{::opts.color}};stroke-width:0.6376"></path>
            <path transform="rotate(19.151556,12.060181,12.879499)"
                  d="m 15.653492,13.141301 1.239854,-0.655753 C 16.868973,12.242584 16.821868,12.006894 16.76294,11.7752 l -1.3773,-0.190722 C 15.26643,11.297307 15.109009,11.030963 14.923964,10.786473 L 15.448972,9.495262 C 15.27634,9.326902 15.089904,9.173406 14.893677,9.032167 L 13.72417,9.766368 C 13.449919,9.622146 13.154441,9.512607 12.844259,9.442256 L 12.421618,8.13291 C 12.301753,8.12386 12.181922,8.114296 12.059683,8.114296 c -0.122239,0 -0.241731,0.00934 -0.361957,0.018614 l -0.418454,1.297748 c -0.318497,0.068097 -0.620499,0.178908 -0.901799,0.32491 L 9.22618,9.032167 C 9.030201,9.173406 8.843773,9.326902 8.671155,9.495262 l 0.51056,1.255546 C 8.982723,11.005843 8.816122,11.287237 8.69099,11.590513 L 7.35717,11.774981 C 7.298491,12.00635 7.251139,12.24179 7.227017,12.4853 l 1.197136,0.633386 c 0.013563,0.333417 0.068841,0.656552 0.166727,0.960846 l -0.903055,0.998504 c 0.105049,0.217884 0.222004,0.429186 0.357303,0.627427 l 1.329545,-0.285427 c 0.217989,0.237183 0.46635,0.444993 0.740367,0.616845 l -0.05039,1.360323 c 0.218356,0.09848 0.44523,0.180902 0.679032,0.246783 l 0.841127,-1.081185 c 0.149242,0.01905 0.300369,0.03189 0.454514,0.03189 0.166987,0 0.330291,-0.01509 0.490966,-0.03716 l 0.845507,1.087183 c 0.234169,-0.0658 0.460698,-0.148221 0.679031,-0.246708 l -0.05137,-1.384752 c 0.261174,-0.169084 0.498,-0.37137 0.706788,-0.599757 l 1.364122,0.292702 c 0.135299,-0.198211 0.25227,-0.409287 0.357282,-0.627354 l -0.932304,-1.031197 c 0.08956,-0.288226 0.139586,-0.592489 0.154151,-0.906341 v 0 z m -2.060729,1.575176 -0.587836,0.38268 -0.361558,-0.555509 c -0.188088,0.07235 -0.390586,0.116338 -0.604052,0.116338 -0.9323,0 -1.687843,-0.755839 -1.687843,-1.687995 0,-0.932193 0.755542,-1.68774 1.687843,-1.68774 0.932057,0 1.687875,0.755547 1.687875,1.68774 0,0.465826 -0.188706,0.886927 -0.493735,1.192459 l 0.359307,0.552026 z" fill-opacity="null" stroke-opacity="null"
                  style="fill:none;stroke:{{::opts.color}};stroke-width:0.40000001"></path>
        </g>
    </svg>
