<svg xmlns="http://www.w3.org/2000/svg" version="1.1" viewbox="0 0 85 85" width="100%" height="100%">
  <g
     transform="translate(-2.2863285,61)">
    <path
       style="fill:none;stroke:{{::opts.color}};stroke-width:0.75;stroke-miterlimit:4;stroke-dasharray:none;stroke-opacity:1"
       d="m 47.864657,-44.316142 c 4.864208,2.123156 6.13416,2.935005 5.624204,3.595405 -0.996162,1.290049 0.612679,2.77815 4.808605,4.447717 5.262148,2.093825 11.406339,1.031434 15.052367,-2.602705 1.415191,-1.410548 2.89213,-3.157802 3.282106,-3.882764 0.38997,-0.72496 0.401277,0.03076 0.02527,1.67941 -1.881712,8.247417 -8.496336,13.111138 -17.247435,12.682019 -3.489365,-0.171101 -10.543968,-3.202384 -12.182214,-5.234503 -0.464104,-0.575687 -1.37454,-0.762072 -2.023175,-0.414186 -1.060773,0.568925 -1.305363,0.01243 -2.432766,-5.535196 -0.689382,-3.392248 -1.239121,-6.462441 -1.221643,-6.822653 0.01738,-0.360203 2.85908,0.57914 6.314676,2.087456 z m 14.220245,-0.345343 c -4.864211,-2.123154 -6.134168,-2.935006 -5.624211,-3.595401 0.996166,-1.290048 -0.61268,-2.778149 -4.808601,-4.44772 -5.262148,-2.093827 -11.406347,-1.031428 -15.052372,2.602708 -1.415188,1.410547 -2.892119,3.157806 -3.282098,3.882768 -0.389971,0.724962 -0.401282,-0.03077 -0.02527,-1.679411 1.881711,-8.247417 8.496337,-13.111141 17.24744,-12.682019 3.489229,0.171094 10.543832,3.202382 12.182076,5.234498 0.464106,0.57569 1.374543,0.762069 2.02317,0.414188 1.060782,-0.568931 1.305368,-0.01244 2.43277,5.535193 0.689382,3.392245 1.239117,6.462441 1.221642,6.822653 -0.01738,0.360204 -2.85908,-0.57914 -6.314672,-2.087457 z m 9.371211,21.595838 H 44.786328 l -6.667447,-6.667447 H 18.116543 c -3.667097,0 -6.634113,3.000351 -6.634113,6.667447 l -0.03333,40.00468 c 0,3.667093 3.00035,6.667443 6.667448,6.667443 h 53.339565 c 3.667093,0 6.667444,-3.00035 6.667444,-6.667443 v -33.337232 c 0,-3.667097 -3.000351,-6.667448 -6.667444,-6.667448 z" />
  </g>
</svg>
