<svg xmlns="http://www.w3.org/2000/svg" version="1.1" viewbox="0 0 85 85" width="100%" height="100%">
  <g
     transform="matrix(3.510108,0,0,3.510108,0.378704,-4.1504656)">
    <path
       style="fill:none;stroke:{{::opts.color}};stroke-width:0.21366864;stroke-miterlimit:4;stroke-dasharray:none;stroke-opacity:1"
       d="m 14.110214,11.787631 a 1.760752,1.760752 0 0 1 -1.760752,1.760752 1.760752,1.760752 0 0 1 -1.760752,-1.760752 1.760752,1.760752 0 0 1 1.760752,-1.760752 1.760752,1.760752 0 0 1 1.760752,1.760752 z M 5.3823,8.368431 c 4.489247,-3.833219 8.978493,3.833218 13.467739,0 v 6.899792 c -4.489246,3.833219 -8.978492,-3.833218 -13.467739,0 z M 20,20.661289 c 1.1,0 1.99,-1.105645 1.99,-2.456989 L 22,5.919355 C 22,4.568011 21.1,3.462366 20,3.462366 H 4 c -1.1,0 -2,1.105645 -2,2.456989 V 18.2043 c 0,1.351344 0.9,2.456989 2,2.456989 H 0 v 2.456989 H 24 V 20.661289 Z M 4,5.919355 H 20 V 18.2043 H 4 Z"
       inkscape:connector-curvature="0" />
  </g>
</svg>
