<svg xmlns="http://www.w3.org/2000/svg" version="1.1" viewbox="0 0 85 85" width="100%" height="100%">
  <g
     transform="matrix(3.5101553,0,0,3.5101553,0.27668589,2.0520557)"
     style="stroke:{{::opts.color}};stroke-opacity:1">
    <path
       style="fill:none;stroke:{{::opts.color}};stroke-width:0.21366575;stroke-miterlimit:4;stroke-dasharray:none;stroke-opacity:1"
       d="M 16.637454,16.937979 H 8.351751 V 5.080119 h 4.614883 v 9.67e-4 c 0.201194,-0.012091 0.374821,0.186685 0.507821,0.641305 0.12091,0.432857 0.151379,0.997264 0.150895,1.388528 0.001,0.286798 -0.01306,0.479286 -0.01306,0.479286 l 0.293571,0.318718 c 0.0014,0 0.733197,0.0087 1.450917,0.171692 0.689669,0.148961 1.228927,0.445915 1.279225,0.782044 0.0019,0.029986 0.0024,0.059971 0.0019,0.088023 v 7.987297 h -4.84e-4 l 1.3e-5,1e-6 z M 15.986469,5.006342 C 14.974837,4.023714 13.883737,3.236567 12.988698,3.129255 12.939973,3.122294 12.889507,3.118234 12.836141,3.117074 h -5.89055 c -0.09397,0 -0.186781,0.036544 -0.252908,0.104412 C 6.627136,3.287613 6.588271,3.380424 6.588271,3.474974 v 14.936647 c 0,0.09397 0.036544,0.18388 0.104412,0.252328 0.067867,0.06729 0.157197,0.103831 0.252908,0.103831 h 10.652295 c 0.09397,0 0.18388,-0.03596 0.251748,-0.103831 0.06787,-0.06787 0.105572,-0.157777 0.105572,-0.252328 V 8.472225 C 17.934324,7.318478 17.030584,6.060319 15.986469,5.006343 Z m 4.042433,14.15334 c 1.1,0 1.99,-1.145484 1.99,-2.54552 l 0.01,-12.727601 c 0,-1.400037 -0.9,-2.545521 -2,-2.545521 h -16 c -1.1,0 -2,1.145484 -2,2.545521 v 12.727601 c 0,1.400036 0.9,2.54552 2,2.54552 h -4 v 2.54552 h 24 v -2.54552 z"
       inkscape:connector-curvature="0" />
  </g>
</svg>
