<svg xmlns="http://www.w3.org/2000/svg" version="1.1" viewbox="0 0 85 85" width="100%" height="100%">
  <g transform="matrix(3.8295935,0,0,3.8295935,-2.7370885,-7.0450557)">
    <path
       style="fill:none;stroke:{{::opts.color}};stroke-width:0.19584323;stroke-miterlimit:4;stroke-dasharray:none;stroke-opacity:1"
       d="m 18.695875,9.8026848 h 3.374931 V 23.18727 h -3.374931 z m -5.624719,5.2472222 h 3.374931 v 8.137361 H 13.071156 Z M 7.2954369,11.463677 H 10.670368 V 23.187269 H 7.2954369 Z m -5.7757188,5.473722 h 3.374931 V 23.18727 H 1.5197181 Z M 22.812504,4.687568 c 0,1.1 -0.9,2 -2,2 -0.18,0 -0.35,-0.02 -0.51,-0.07 l -3.56,3.55 c 0.05,0.16 0.07,0.34 0.07,0.52 0,1.1 -0.9,2 -2,2 -1.1,0 -2,-0.9 -2,-2 0,-0.18 0.02,-0.36 0.07,-0.52 l -2.55,-2.55 c -0.16,0.05 -0.34,0.07 -0.52,0.07 -0.18,0 -0.36,-0.02 -0.52,-0.07 l -4.55,4.56 c 0.05,0.16 0.07,0.33 0.07,0.51 0,1.1 -0.9,2 -2,2 -1.1,0 -2,-0.9 -2,-2 0,-1.1 0.9,-2 2,-2 0.18,0 0.35,0.02 0.51,0.07 l 4.56,-4.55 c -0.05,-0.16 -0.07,-0.34 -0.07,-0.52 0,-1.1 0.9,-2 2,-2 1.1,0 2,0.9 2,2 0,0.18 -0.02,0.36 -0.07,0.52 l 2.55,2.55 c 0.16,-0.05 0.34,-0.07 0.52,-0.07 0.18,0 0.36,0.02 0.52,0.07 l 3.55,-3.56 c -0.05,-0.16 -0.07,-0.33 -0.07,-0.51 0,-1.1 0.9,-2 2,-2 1.1,0 2,0.9 2,2 z"
       inkscape:connector-curvature="0" />
  </g>
</svg>
