<svg xmlns="http://www.w3.org/2000/svg" version="1.1" width="100%" height="100%" viewBox="0 0 55 55">
  <g transform="translate(0,31)">
    <rect height="47" width="47" y="-1" x="-1" style="fill:none"></rect>
  </g>
  <g transform="matrix(2.5353526,0,0,2.5353526,-0.99873304,-5.582192)">
    <path d="m 10.040526,7.249309 -1.5392998,2.6755881 1.7180188,-0.0027 0.0085,1.2665409 c 0.06421,0.83979 -0.8860759,2.291573 -2.14762,3.906115 -1.1964985,1.625695 -2.6647622,3.483798 -2.6997615,5.968304 l 0.00267,0.310804 2.7387692,-0.0049 -0.00267,-0.310801 c -0.037507,-1.216693 0.9167095,-2.718714 2.1486363,-4.318219 0.430291,-0.596155 0.905102,-1.197527 1.333631,-1.83462 0.431321,0.635583 0.908823,1.234565 1.341219,1.829912 1.234115,1.595164 2.195898,3.093814 2.163225,4.309058 l 0.0027,0.312373 2.742763,-0.0049 -0.0027,-0.311519 c -0.03908,-2.47902 -1.517881,-4.332658 -2.718391,-5.959412 -1.267245,-1.610236 -2.223217,-3.057955 -2.163073,-3.89867 l -0.0085,-1.2649689 1.718003,-0.0027 -1.54697,-2.6702191 -1.548108,-2.6717231 -1.540992,2.6771562 z" fill-opacity="null" inkscape:connector-curvature="0" style="fill:none;stroke:{{::opts.color}};stroke-width:0.19721123;stroke-miterlimit:4;stroke-dasharray:none;stroke-opacity:1" sodipodi:nodetypes="cccccccccccccccccccccccc"></path>
  </g>
</svg>
