<svg
   viewbox="0 0 85 85"
   width="100%"
   height="100%"
  > 
  <g
     transform="matrix(3.7070873,0,0,3.7070873,-1.6375267,-1.3970074)"
     style="stroke:{{::opts.color}};stroke-opacity:1;stroke-width:0.20231517;stroke-miterlimit:4;stroke-dasharray:none">
    <rect
       stroke-width="null"
       x="-9.3432083"
       y="18.968573"
       width="0.062498"
       height="0"
       style="fill:#f2f2f2;stroke:{{::opts.color}};stroke-opacity:1;stroke-width:0.20231517;stroke-miterlimit:4;stroke-dasharray:none" />
    <path
       style="fill:none;stroke:{{::opts.color}};stroke-width:0.20231517;stroke-miterlimit:4;stroke-dasharray:none;stroke-opacity:1"
       d="m 12.080176,16.281832 5.560167,0.08299 m -5.536609,-6.03422 -0.04149,6.058091 m 5.560162,-0.587529 a 5.518672,5.518672 0 0 1 -5.518672,5.518672 5.518672,5.518672 0 0 1 -5.518672,-5.518672 5.518672,5.518672 0 0 1 5.518672,-5.518672 5.518672,5.518672 0 0 1 5.518672,5.518672 z M 4.6348538,5.9834018 h 6.7634852 v 1.659751 H 4.6348538 Z m 0,-2.9045637 H 11.398339 V 4.7385892 H 4.6348538 Z M 14.16406,0.62504 H 5.13284 c -1.2418,0 -2.24652,1.01601 -2.24652,2.2578 L 2.87503,20.94529 c 0,1.24179 1.00472,2.25781 2.24652,2.25781 h 13.55812 c 1.2418,0 2.25781,-1.01602 2.25781,-2.25781 V 7.39845 L 14.16406,0.62503 Z m -1.1289,7.90232 V 2.31839 l 6.20896,6.20897 z" />
  </g>
</svg>