<svg xmlns="http://www.w3.org/2000/svg" version="1.1" width="100%" height="100%" viewbox="0 0 150 150">
	<g transform="translate(0,126)">
		<path d="M 0,0 H 24 V 24 H 0 Z" inkscape:connector-curvature="0" style="fill:none" />
		<path d="m 56.994758,-94.448387 c 7.096774,0 12.903226,-5.806453 12.903226,-12.903223 0,-7.09678 -5.806452,-12.90323 -12.903226,-12.90323 -7.096774,0 -12.903226,5.80645 -12.903226,12.90323 0,7.09677 5.806452,12.903223 12.903226,12.903223 z M 33.12379,-72.512903 15.059274,18.454839 h 13.548387 l 11.612904,-51.612904 13.548387,12.903226 V 18.454839 H 66.672177 V -29.932258 L 53.12379,-42.835484 56.994758,-62.190323 c 8.387097,9.67742 29.354839,14.516129 43.548382,14.516129 l -8.064511,-11.290322 c -5.403226,-0.806452 -22.580645,-6.451613 -27.741935,-15.483871 l -6.451613,-10.322581 c -2.580646,-3.870967 -6.451613,-6.451613 -10.967742,-6.451613 -1.935484,0 -3.225807,0.645162 -5.161291,0.645162 L 8.6076613,-76.383871 V -46.06129 H 21.510887 v -21.935484 l 11.612903,-4.516129" inkscape:connector-curvature="0" style="fill:none;stroke:#7d7d7d;stroke-width:1.2;stroke-miterlimit:4;stroke-dasharray:none" />
		<path d="m 111.82036,-67.889026 -1.80592,-6.320729 c 0.52925,-0.464245 1.02599,-0.960993 1.49488,-1.492555 l 6.31608,1.805923 c 0.6662,-0.970278 1.23955,-2.00091 1.75254,-3.071 l -4.7005,-4.549626 c 0.22516,-0.668516 0.42014,-1.348639 0.55941,-2.049652 l 6.33466,-1.587729 c 0.0464,-0.584954 0.0905,-1.172225 0.0905,-1.771103 0,-0.598877 -0.0464,-1.183832 -0.0905,-1.76878 l -6.33466,-1.587729 c -0.14159,-0.701013 -0.33658,-1.381136 -0.55941,-2.049652 l 4.70282,-4.549626 c -0.51531,-1.067768 -1.08866,-2.100722 -1.75486,-3.071 l -6.31608,1.8036 c -0.46657,-0.529245 -0.96563,-1.025987 -1.49488,-1.492555 l 1.80592,-6.318411 c -0.97027,-0.66387 -2.00322,-1.23954 -3.07331,-1.75253 l -4.54963,4.70283 c -0.66619,-0.22517 -1.34864,-0.41783 -2.04965,-0.55942 l -1.5854,-6.33698 c -0.587276,-0.0441 -1.172231,-0.0905 -1.771109,-0.0905 -0.598877,0 -1.183832,0.0464 -1.76878,0.0905 l -1.587729,6.33698 c -0.701013,0.14159 -1.381136,0.33425 -2.049652,0.55942 l -4.549626,-4.70283 c -1.067768,0.51995 -2.0984,1.0933 -3.068677,1.7595 l 1.805922,6.318403 c -0.529245,0.464245 -1.028309,0.963316 -1.492554,1.490232 l -6.318407,-1.805923 c -0.666193,0.970278 -1.239542,2.003226 -1.752535,3.073316 l 4.702825,4.549626 c -0.222838,0.668516 -0.417825,1.348639 -0.559419,2.049652 l -6.336981,1.587729 c -0.0441,0.584955 -0.09053,1.172226 -0.09053,1.76878 0,0.596555 0.04643,1.183833 0.09053,1.771104 l 6.336981,1.587729 c 0.141594,0.701013 0.336581,1.381135 0.559419,2.049651 l -4.702825,4.549626 c 0.512993,1.067768 1.086342,2.100723 1.752535,3.071 l 6.318407,-1.805922 c 0.464245,0.531561 0.963316,1.025987 1.492554,1.492554 l -1.805922,6.320729 c 0.970277,0.663871 2.003226,1.23722 3.071,1.752536 l 4.549626,-4.702826 c 0.668516,0.225161 1.348638,0.420142 2.049651,0.559419 l 1.587729,6.334659 c 0.584955,0.04642 1.172226,0.09053 1.771103,0.09053 0.598878,0 1.183833,-0.04643 1.771104,-0.09053 l 1.58541,-6.334659 c 0.70101,-0.141593 1.38345,-0.33658 2.04965,-0.559419 l 4.54962,4.702826 c 1.06545,-0.519955 2.0984,-1.093303 3.06868,-1.757174 z M 98.793584,-79.033284 c -4.356961,0 -7.889884,-3.532922 -7.889884,-7.889884 0,-4.356961 3.532923,-7.887561 7.889884,-7.887561 4.356956,0 7.887566,3.5306 7.887566,7.887561 0,4.356962 -3.5306,7.889884 -7.887566,7.889884 z m 35.960606,16.492394 c 0.0441,-1.269716 -0.13928,-2.562645 -0.53388,-3.839329 l 2.88762,-4.115555 c -0.4364,-0.812432 -0.9285,-1.583084 -1.48792,-2.284097 l -4.92566,1.032948 c -0.9935,-0.844929 -2.12393,-1.504161 -3.3333,-1.975374 l -1.41828,-4.825851 c -0.896,-0.157846 -1.8036,-0.243729 -2.72281,-0.246052 l -2.26089,4.493916 c -0.64762,0.125349 -1.29525,0.297116 -1.93127,0.540845 -0.59655,0.227484 -1.15365,0.510671 -1.68754,0.819394 l -4.6564,-1.90109 c -0.68941,0.608161 -1.31846,1.265077 -1.88717,1.977696 l 2.10536,4.568194 c -0.6012,1.149013 -1.01438,2.386232 -1.20472,3.679161 l -4.38946,2.46051 c 0.0441,0.900639 0.17642,1.801277 0.38069,2.704239 l 4.88388,1.204722 c 0.53621,1.216329 1.25579,2.304987 2.12625,3.233484 l -0.81707,4.962806 c 0.74279,0.533884 1.53202,0.993491 2.35141,1.392742 l 3.98092,-3.064032 c 1.24418,0.327297 2.5464,0.452639 3.8579,0.348187 l 3.37044,3.730226 c 0.46424,-0.13231 0.92617,-0.273903 1.38346,-0.448 0.40621,-0.1532 0.78921,-0.334258 1.17222,-0.517639 l 0.0859,-5.025477 c 1.05617,-0.786897 1.9568,-1.733961 2.67407,-2.799413 l 5.01619,-0.311045 c 0.35283,-0.833323 0.64763,-1.699149 0.85422,-2.588181 l -3.87415,-3.207948 z m -9.66331,4.658722 c -2.78781,1.063129 -5.90755,-0.334258 -6.97299,-3.122064 -1.06545,-2.787807 0.33193,-5.909871 3.11974,-6.975316 2.78781,-1.063129 5.91219,0.334258 6.97764,3.122064 1.06313,2.787807 -0.33658,5.909871 -3.12439,6.975316 z" inkscape:connector-curvature="0" style="fill:none;stroke:#7d7d7d;stroke-width:1.2;stroke-miterlimit:4;stroke-dasharray:none" />
	</g>
</svg>
