<svg xmlns="http://www.w3.org/2000/svg" version="1.1" width="100%" height="100%" viewBox="0 0 55 55">
  <g transform="translate(0,-345)">
    <rect height="402" width="582" y="-1" x="-1" style="fill:none"></rect>
    <g display="none" overflow="visible" y="0" x="0" height="100%" width="100%" style="display:none;overflow:visible">
      <rect y="0" x="0" height="100%" width="100%" style="fill:url(#gridpattern);stroke-width:0"></rect>
    </g>
  </g>
  <g transform="matrix(0.12232639,0,0,0.12232639,-8.2808177,2.930467)">
    <path d="m 294.01781,59.176458 c 14.40916,0.01822 28.1745,2.513112 41.21092,6.681104 L 324.91134,83.7018 h 73.23671 l -18.31386,-31.716935 -18.29988,-31.707453 -9.6332,16.707795 c -18.05416,-6.600649 -37.51722,-10.294739 -57.87018,-10.294739 -93.68318,0 -169.61634,75.937932 -169.61634,169.620752 0,38.88146 13.22413,74.605 35.232,103.22683 l 25.79105,-19.80232 c -17.79935,-23.13037 -28.5013,-51.99385 -28.55937,-83.41515 0.12964,-75.74132 61.40757,-137.02799 137.13952,-137.144122 z m 134.40221,33.943712 -25.79099,19.8118 c 17.79487,23.12157 28.49687,51.96686 28.54584,83.39749 -0.12965,75.7407 -61.40757,137.0186 -137.14393,137.14342 -13.42092,-0.0173 -26.26062,-2.19962 -38.50096,-5.84918 l 9.709,-16.78876 H 192.0026 l 18.30031,31.69938 18.31352,31.7431 10.21006,-17.7185 c 17.31618,6.02818 35.84879,9.39128 55.20445,9.40003 93.6967,-0.0175 169.61683,-75.95546 169.63884,-169.63835 -0.022,-38.88137 -13.25554,-74.59619 -35.24976,-103.200415 v -1.4e-5 z" inkscape:connector-curvature="0" style="fill:none;stroke:{{::opts.color}};stroke-width:4.08742545;stroke-miterlimit:4;stroke-dasharray:none"></path>
  </g>
</svg>
