<svg xmlns="http://www.w3.org/2000/svg" version="1.1" viewbox="0 0 85 85" width="100%" height="100%">
  <g
     style="fill:#000000"
     transform="matrix(2,0,0,2,23.334343,33.952323)">
    <path
       d="M 0,0 H 24 V 24 H 0 Z"
       inkscape:connector-curvature="0"
       style="fill:none" />
  </g>
  <path
     style="fill:none;fill-opacity:1;stroke:{{::opts.color}};stroke-width:0.7499159;stroke-linejoin:miter;stroke-miterlimit:4;stroke-dasharray:none;stroke-opacity:1"
     d="m 25.36419,19.429441 a 5.643409,5.643409 0 0 1 -5.643409,5.643409 5.643409,5.643409 0 0 1 -5.643409,-5.643409 5.643409,5.643409 0 0 1 5.643409,-5.643409 5.643409,5.643409 0 0 1 5.643409,5.643409 z m -7.341262,29.194054 3.17e-4,-12.998541 5.902768,-5.297991 5.91804,5.297991 8.891817,-13.773135 11.311414,15.793814 -3.93e-4,10.977862 z m 42.454256,4.641421 h -3.798458 l -1.346293,-1.298208 c 4.712016,-5.481322 7.548841,-12.597426 7.548841,-20.338592 0,-17.26136 -13.991798,-31.25315783 -31.253159,-31.25315783 -17.261359,0 -31.25315724,13.99179783 -31.25315724,31.25315783 0,17.261359 13.99179824,31.25316 31.25315724,31.25316 7.741166,0 14.857271,-2.836828 20.338594,-7.548843 l 1.298208,1.346293 v 3.79846 l 24.040891,23.992808 7.164187,-7.164186 z"
     inkscape:connector-curvature="0" />
</svg>
