<svg xmlns="http://www.w3.org/2000/svg" version="1.1" width="100%" height="100%" viewBox="0 0 55 55">
  <g transform="matrix(1.3320814,0,0,1.3320814,0.33208141,22.697965)"></g>
  <g transform="translate(0,31)">
    <path d="m 32.410952,4.0277972 c -0.03147,-0.047358 -0.07055,-0.093771 -0.12034,-0.1293811 -0.213079,-0.1552536 -0.513772,-0.1079146 -0.669985,0.1063874 -0.15595,0.2148008 -0.106666,0.5150309 0.106908,0.6707308 0.19405,0.1406074 0.453004,0.1068899 0.618237,-0.058528 L 27.811864,10.867209 26.402333,15.983499 30.82789,13.055106 40.906421,-0.83860083 37.889178,-3.026935 36.91655,-1.6859865 C 36.8609,-1.909055 36.736681,-2.1184902 36.535314,-2.2659214 36.068142,-2.6046584 35.415015,-2.5021891 35.076485,-2.0340793 33.136584,0.64201881 34.211983,1.354665 32.41095,4.0277914 v 0 z m -2.219611,8.3653658 -2.276473,1.506436 0.724901,-2.634034 z m 2.681651,-8.5015525 c 1.396581,-2.0633899 1.263554,-2.622875 2.458788,-4.4543429 0.197714,0.13568025 0.424698,0.18354125 0.647528,0.17179336 L 32.872992,3.8916068 Z" fill-opacity="null" stroke-opacity="null" inkscape:connector-curvature="0" style="fill:none;stroke:{{::opts.color}};stroke-width:0.5;stroke-miterlimit:4;stroke-dasharray:none"></path>
    <line stroke-linecap="null" stroke-linejoin="null" y2="-18.653954" x2="32.264866" y1="-18.653954" x1="3.0510175" fill-opacity="null" stroke-opacity="null" style="fill:none;stroke:{{::opts.color}};stroke-width:0.5;stroke-miterlimit:4;stroke-dasharray:none"></line>
    <line stroke-linecap="null" stroke-linejoin="null" y2="20.647528" x2="3.2336459" y1="-18.98464" x1="3.2336459" fill-opacity="null" stroke-opacity="null" style="fill:none;stroke:{{::opts.color}};stroke-width:0.5;stroke-miterlimit:4;stroke-dasharray:none"></line>
    <line stroke-linecap="null" stroke-linejoin="null" y2="3.8521547" x2="32.401249" y1="-18.999998" x1="32.401249" fill-opacity="null" stroke-opacity="null" style="fill:none;stroke:{{::opts.color}};stroke-width:0.5;stroke-miterlimit:4;stroke-dasharray:none"></line>
    <line stroke-linecap="null" stroke-linejoin="null" y2="20.84491" x2="32.403809" y1="20.84491" x1="3.0510175" fill-opacity="null" stroke-opacity="null" style="fill:none;stroke:{{::opts.color}};stroke-width:0.5;stroke-miterlimit:4;stroke-dasharray:none"></line>
    <line stroke-linecap="null" stroke-linejoin="null" y2="21.064041" x2="32.401264" y1="10.895915" x1="32.401264" fill-opacity="null" stroke-opacity="null" style="fill:none;stroke:{{::opts.color}};stroke-width:0.5;stroke-miterlimit:4;stroke-dasharray:none"></line>
    <rect height="2.9234095" width="21.95475" y="-14.655736" x="6.6307874" fill-opacity="null" stroke-opacity="null" style="fill:none;stroke:{{::opts.color}};stroke-width:0.5;stroke-miterlimit:4;stroke-dasharray:none"></rect>
    <rect height="3.1263947" width="16.703043" y="-0.52168369" x="6.4757252" fill-opacity="null" stroke-opacity="null" style="fill:none;stroke:{{::opts.color}};stroke-width:0.5;stroke-miterlimit:4;stroke-dasharray:none"></rect>
    <line stroke-linecap="null" stroke-linejoin="null" y2="17.211885" x2="10.86148" y1="17.211885" x1="25.50695" fill-opacity="null" stroke-opacity="null" style="fill:none;stroke:{{::opts.color}};stroke-width:0.5;stroke-miterlimit:4;stroke-dasharray:none"></line>
    <rect height="3.0767803" width="19.814459" y="-5.9578605" x="6.5162625" fill-opacity="null" stroke-opacity="null" style="fill:none;stroke:{{::opts.color}};stroke-width:0.5;stroke-miterlimit:4;stroke-dasharray:none"></rect>
  </g>
</svg>
