<svg xmlns="http://www.w3.org/2000/svg" version="1.1" width="100%" height="100%" viewBox="0 0 55 55">
  <g transform="matrix(1.0561238,0,0,1.0561238,6.0561238,23.596906)" style="stroke-width:0.47342935;stroke-miterlimit:4;stroke-dasharray:none"></g>
  <g transform="matrix(1.6666667,0,0,1.6666667,0,15)">
    <path d="M 3.6336742,-4.9806448 H 28.980645 V 20.366326 H 3.6336742 Z" inkscape:connector-curvature="0" style="fill:none;stroke-width:0.29999999;stroke-miterlimit:4;stroke-dasharray:none"></path>
    <path d="m 21.364297,-1.1227267 -3.266443,3.2950829 v 2.6195915 c 0.947268,0.345983 1.633222,1.2521304 1.633222,2.3230323 0,1.36746 -1.094258,2.471313 -2.449832,2.471313 -1.355574,0 -2.449833,-1.103853 -2.449833,-2.471313 0,-1.0709019 0.685954,-1.9770493 1.633222,-2.3230323 V 2.1723562 L 13.198191,-1.1227267 H 9.9317481 v -4.1188547 h 4.0830529 v 2.5125006 l 3.266443,3.45983862 3.266443,-3.45983862 v -2.5125006 h 4.083052 v 4.1188547 z" inkscape:connector-curvature="0" style="fill:none;stroke:{{::opts.color}};stroke-width:0.29999999;stroke-miterlimit:4;stroke-dasharray:none"></path>
    <path d="m 13.172097,15.39808 3.266437,-3.295084 1e-6,-2.619594 C 15.491266,9.13742 14.805314,8.231273 14.805314,7.160371 c -2e-6,-1.3674592 1.094257,-2.4713117 2.449833,-2.4713106 1.355575,9e-7 2.449832,1.1038525 2.449832,2.4713116 -1e-6,1.070903 -0.685953,1.977053 -1.633221,2.323033 l 1e-6,2.619594 3.266446,3.295078 h 3.266442 l -1e-6,4.118854 -4.083053,2e-6 1e-6,-2.512502 -3.266442,-3.459838 -3.266445,3.459836 1e-6,2.512503 -4.0830509,-3e-6 -3e-7,-4.118852 z" inkscape:connector-curvature="0" style="fill:none;stroke:{{::opts.color}};stroke-width:0.29999999;stroke-miterlimit:4;stroke-dasharray:none"></path>
    <path d="M 25.534854,11.269497 22.239771,8.003054 h -2.61959 c -0.345983,0.947268 -1.252131,1.633221 -2.323034,1.633221 -1.36746,0 -2.471314,-1.094258 -2.471312,-2.449834 0,-1.3555732 1.103853,-2.449833 2.471311,-2.4498338 1.070903,-3e-7 1.977051,0.6859534 2.323034,1.6332217 l 2.61959,3.2e-6 3.295083,-3.2664422 1e-6,-3.26644148 4.118855,2e-7 V 3.9199999 h -2.5125 l -3.45984,3.2664421 3.45984,3.266443 2.5125,10e-7 v 4.083051 l -4.118856,10e-7 z" inkscape:connector-curvature="0" style="fill:none;stroke:{{::opts.color}};stroke-width:0.29999999;stroke-miterlimit:4;stroke-dasharray:none"></path>
    <path d="m 9.0140468,3.0772975 3.2950842,3.2664357 h 2.619596 c 0.34598,-0.9472683 1.252127,-1.6332208 2.323028,-1.6332205 1.367461,-1.1e-6 2.471312,1.0942573 2.471311,2.4498333 -1e-6,1.355576 -1.103852,2.449833 -2.471311,2.449832 -1.070903,-2e-6 -1.977054,-0.685954 -2.323033,-1.633219 l -2.619595,-1e-6 -3.295076,3.266445 -1.1e-6,3.266443 H 4.8951947 l -2.1e-6,-4.083055 2.5125026,4e-6 3.4598378,-3.266444 -3.4598357,-3.2664448 -2.5125026,1.4e-6 3.1e-6,-4.08305018 4.1188521,-3e-7 z" inkscape:connector-curvature="0" style="fill:none;stroke:{{::opts.color}};stroke-width:0.29999999;stroke-miterlimit:4;stroke-dasharray:none"></path>
  </g>
</svg>
