<svg xmlns="http://www.w3.org/2000/svg" version="1.1" width="100%" height="100%" viewBox="0 0 55 55">
  <g transform="translate(0,31)"></g>
  <g transform="matrix(2.2445076,0,0,2.2445076,0.094523,1.1036506)">
    <path d="m 15.839472,15.63302 c -0.863771,-0.345661 -1.20867,-1.295657 -1.20867,-1.295657 0,0 -0.389155,0.21518 -0.389155,-0.389155 0,-0.604335 0.389155,0.389155 0.77831,-1.94425 0,0 1.078952,-0.30293 0.863772,-2.80802 h -0.259437 c 0,0 0.647829,-2.678303 0,-3.585569 C 14.975701,4.703104 14.717027,4.098769 13.290888,3.66612 11.864749,3.233471 12.384386,3.319696 11.347402,3.363953 10.310418,3.407446 9.445883,3.968288 9.445883,4.270455 c 0,0 -0.647829,0.043494 -0.906502,0.302931 -0.259437,0.259436 -0.691323,1.468106 -0.691323,1.771037 0,0.302931 0.215943,2.333404 0.431886,2.76529 L 8.022796,9.195938 c -0.215942,2.50509 0.863772,2.80802 0.863772,2.80802 0.388392,2.333405 0.777547,1.339915 0.777547,1.94425 0,0.604335 -0.389155,0.389155 -0.389155,0.389155 0,0 -0.344898,0.949996 -1.20867,1.295657 -0.863771,0.344899 -5.658772,2.20216 -6.048691,2.591315 -0.389918,0.389918 -0.345661,2.203686 -0.345661,2.203686 h 20.561886 c 0,0 0.04502,-1.813768 -0.344898,-2.203686 -0.390681,-0.389155 -5.185682,-2.246416 -6.049454,-2.591315 z m 7.522139,0.747025 c -0.01221,-0.0046 -0.029,-0.01144 -0.03968,-0.01602 z" inkscape:connector-curvature="0" style="fill:none;stroke:{{::opts.color}};stroke-width:0.22276601;stroke-miterlimit:4;stroke-dasharray:none"></path>
    <path transform="rotate(0.5979473,4.1316404,14.552807)" d="M 6.117505,16.440779 C 6.056051,16.329043 6.025634,16.248345 6.025634,16.248345 c 0,0 -0.268166,0.14836 -0.268166,-0.268165 0,-0.416525 0.268166,0.268165 0.536331,-1.340207 0,0 0.744284,-0.208573 0.595303,-1.93613 H 6.710325 c 0,0 0.088767,-0.366865 0.147118,-0.828085 -0.00248,-0.191192 0.00373,-0.394799 0.022968,-0.61827 L 6.904,10.993047 C 6.890964,10.687636 6.837579,10.41016 6.710325,10.232003 6.263382,9.606905 6.084605,9.189758 5.101953,8.891797 4.1193,8.593835 4.476233,8.652807 3.761746,8.683224 3.046638,8.71302 2.450715,9.099749 2.450715,9.308943 c 0,0 -0.446943,0.029796 -0.62572,0.208573 -0.168224,0.168224 -0.437631,0.907542 -0.46991,1.17012 v 0.174432 c 0.029176,0.405352 0.160155,1.520225 0.291133,1.782804 l -0.177535,0.05959 c -0.14836,1.727557 0.595303,1.93613 0.595303,1.93613 0.268165,1.608372 0.53633,0.923681 0.53633,1.340207 0,0.416526 -0.268165,0.268165 -0.268165,0.268165 0,0 -0.237749,0.656136 -0.833672,0.893264 -0.037866,0.0149 -0.086285,0.03476 -0.144015,0.05711 v 3.249023 H 1.711398 C 1.693396,19.65504 1.759196,18.631418 2.17448,18.217375 2.395468,17.997008 3.119887,17.634488 6.117505,16.440779 Z" fill-opacity="null" stroke-opacity="null" inkscape:connector-curvature="0" style="fill:none;stroke:{{::opts.color}};stroke-width:0.22276601;stroke-miterlimit:4;stroke-dasharray:none"></path>
    <path transform="rotate(0.5979473,19.846319,14.496341)" d="m 17.847969,16.384314 c 0.06184,-0.111736 0.09245,-0.192434 0.09245,-0.192434 0,0 0.269852,0.14836 0.269852,-0.268165 0,-0.416525 -0.269852,0.268165 -0.539703,-1.340207 0,0 -0.748963,-0.208573 -0.599046,-1.93613 h 0.179901 c 0,0 -0.08933,-0.366865 -0.148043,-0.828085 0.0025,-0.191192 -0.0037,-0.394799 -0.02311,-0.61827 l -0.02374,-0.264441 c 0.01312,-0.305411 0.06684,-0.582887 0.194893,-0.761044 0.449753,-0.625098 0.629654,-1.042245 1.618484,-1.340206 0.988831,-0.297962 0.629654,-0.23899 1.348633,-0.208573 0.719604,0.029796 1.319273,0.416525 1.319273,0.625719 0,0 0.449753,0.029796 0.629654,0.208573 0.169282,0.168224 0.440382,0.907542 0.472864,1.17012 v 0.174432 c -0.02936,0.405352 -0.161162,1.520225 -0.292963,1.782804 l 0.178651,0.05959 c 0.149293,1.727557 -0.599046,1.93613 -0.599046,1.93613 -0.269851,1.608372 -0.539702,0.923681 -0.539702,1.340207 0,0.416526 0.269851,0.268165 0.269851,0.268165 0,0 0.239244,0.656136 0.838913,0.893264 0.0381,0.0149 0.08683,0.03476 0.14492,0.05711 v 3.249023 h -0.359178 c 0.01811,-0.793323 -0.0481,-1.816945 -0.465993,-2.230988 -0.222377,-0.220367 -0.951351,-0.582887 -3.967815,-1.776596 z" fill-opacity="null" stroke-opacity="null" inkscape:connector-curvature="0" style="fill:none;stroke:{{::opts.color}};stroke-width:0.22276601;stroke-miterlimit:4;stroke-dasharray:none"></path>
  </g>
</svg>
