<svg xmlns="http://www.w3.org/2000/svg" version="1.1" width="100%" height="100%" viewBox="0 0 55 55">
  <g transform="translate(0,31)">
  </g>
  <g transform="matrix(1.968804,0,0,1.968804,5.5211869,2.2065891)">
    <path transform="rotate(-40.442711,6.958169,11.445674)" d="M 14.326817,10.617494 C 15.654151,9.091413 15.920953,7.008838 15.198885,5.257407 L 12.534151,8.364855 9.907378,7.854147 9.037,5.323813 11.694995,2.223582 C 9.86667,1.763601 7.852413,2.318921 6.530926,3.838963 5.137253,5.441458 4.909177,7.660602 5.771788,9.461063 l -6.945869,7.987453 c -0.739075,0.849206 -0.649037,2.137195 0.200175,2.875982 0.849212,0.738266 2.136943,0.649037 2.875762,-0.200179 l 6.937732,-7.979573 c 1.909751,0.615544 4.087109,0.08253 5.48723,-1.527252 l -10e-7,-1e-6 z" fill-opacity="null" stroke-opacity="null" inkscape:connector-curvature="0" style="fill:none;stroke:{{::opts.color}};stroke-width:0.25396129;stroke-miterlimit:4;stroke-dasharray:none"></path>
    <path transform="rotate(-122.19141,15.999291,14.844346)" d="M 16.957482,17.099841 16.584839,15.79559 c 0.109206,-0.0958 0.211707,-0.198296 0.30846,-0.307981 l 1.303293,0.372643 c 0.137466,-0.200212 0.255773,-0.412877 0.361627,-0.633685 l -0.969926,-0.938792 c 0.04646,-0.137945 0.08669,-0.278285 0.115433,-0.422935 l 1.307124,-0.327619 c 0.0096,-0.120702 0.01868,-0.241883 0.01868,-0.365458 0,-0.123575 -0.0096,-0.244278 -0.01868,-0.364979 l -1.307124,-0.327619 c -0.02922,-0.144651 -0.06945,-0.28499 -0.115433,-0.422935 l 0.970405,-0.938792 c -0.106333,-0.220329 -0.22464,-0.433473 -0.362106,-0.633685 l -1.303293,0.372164 c -0.09627,-0.109206 -0.199254,-0.211707 -0.30846,-0.307981 L 16.957482,9.244164 C 16.75727,9.107177 16.544126,8.988391 16.323318,8.882537 L 15.384526,9.852942 C 15.24706,9.806481 15.106241,9.766726 14.961591,9.737509 l -0.32714,-1.307603 c -0.121181,-0.0091 -0.241883,-0.01868 -0.365458,-0.01868 -0.123575,0 -0.244278,0.00958 -0.364979,0.01868 L 13.576395,9.737509 C 13.431744,9.766727 13.291405,9.806481 13.15346,9.852942 L 12.214668,8.882537 c -0.220329,0.107291 -0.432994,0.225598 -0.633206,0.363064 l 0.372643,1.303772 c -0.109206,0.0958 -0.212186,0.198775 -0.307981,0.307502 l -1.303772,-0.372643 c -0.137466,0.200212 -0.255773,0.413356 -0.361627,0.634164 l 0.970405,0.938792 c -0.04598,0.137945 -0.08622,0.278285 -0.115433,0.422935 l -1.307603,0.327619 c -0.0091,0.120702 -0.01868,0.241883 -0.01868,0.364979 0,0.123096 0.00958,0.244278 0.01868,0.365458 l 1.307603,0.327619 c 0.02922,0.144651 0.06945,0.28499 0.115433,0.422935 l -0.970405,0.938792 c 0.105854,0.220329 0.224161,0.433473 0.361627,0.633685 l 1.303772,-0.372643 c 0.09579,0.109685 0.198775,0.211707 0.307981,0.307981 l -0.372643,1.304251 c 0.200212,0.136987 0.413356,0.255294 0.633685,0.361627 l 0.938792,-0.970405 c 0.137945,0.04646 0.278285,0.08669 0.422935,0.115433 l 0.327619,1.307124 c 0.120702,0.0096 0.241883,0.01868 0.365458,0.01868 0.123575,0 0.244278,-0.0096 0.365458,-0.01868 l 0.32714,-1.307124 c 0.144651,-0.02922 0.285469,-0.06945 0.422935,-0.115433 l 0.938792,0.970405 c 0.21985,-0.107291 0.432994,-0.225598 0.633206,-0.362585 z m -2.688011,-2.299562 c -0.899037,0 -1.628038,-0.729001 -1.628038,-1.628038 0,-0.899037 0.729001,-1.627559 1.628038,-1.627559 0.899037,0 1.627559,0.728522 1.627559,1.627559 0,0.899037 -0.728522,1.628038 -1.627559,1.628038 z m 7.42029,3.403122 c 0.0091,-0.262 -0.02874,-0.528789 -0.110164,-0.792226 l 0.595846,-0.849224 C 22.085396,16.39431 21.983853,16.23529 21.86842,16.090639 l -1.016386,0.213144 c -0.205002,-0.174347 -0.438263,-0.310376 -0.687809,-0.407608 l -0.292654,-0.99579 c -0.184885,-0.03257 -0.372164,-0.05029 -0.561838,-0.05077 l -0.466522,0.927297 c -0.133634,0.02586 -0.267268,0.06131 -0.398508,0.111601 -0.123097,0.04694 -0.238051,0.105375 -0.348215,0.169078 L 17.135663,15.66531 c -0.142256,0.125492 -0.272058,0.261042 -0.389407,0.408087 l 0.434431,0.942624 c -0.124055,0.237093 -0.209312,0.492387 -0.248588,0.759176 l -0.905743,0.507714 c 0.0091,0.185843 0.0364,0.371685 0.07855,0.558007 l 1.007765,0.248588 c 0.110643,0.250983 0.259126,0.475623 0.438742,0.667213 l -0.168599,1.02405 c 0.153272,0.110164 0.316124,0.205002 0.485202,0.287385 l 0.821443,-0.632248 c 0.256731,0.06754 0.525436,0.0934 0.796057,0.07185 l 0.695473,0.769714 c 0.0958,-0.0273 0.191111,-0.05652 0.285469,-0.09244 0.08382,-0.03161 0.162852,-0.06897 0.241883,-0.106812 l 0.01772,-1.036982 c 0.217934,-0.162373 0.403776,-0.357795 0.55178,-0.577645 l 1.035066,-0.06418 c 0.0728,-0.171952 0.133634,-0.35061 0.176263,-0.534058 l -0.79941,-0.661944 z m -1.993975,0.961304 c -0.57525,0.219371 -1.218993,-0.06897 -1.438843,-0.644222 -0.21985,-0.57525 0.06849,-1.219472 0.643743,-1.439322 0.57525,-0.219371 1.219951,0.06897 1.439801,0.644222 0.219371,0.57525 -0.06945,1.219472 -0.644701,1.439322 z" fill-opacity="null" stroke-opacity="null" inkscape:connector-curvature="0" style="fill:none;stroke:{{::opts.color}};stroke-width:0.25396129;stroke-miterlimit:4;stroke-dasharray:none"></path>
  </g>
</svg>
